HIERARCHY
ROOT Hips
{
 OFFSET 0.000000 0.000000 0.000000
 CHANNELS 6 Xposition Yposition Zposition Yrotation Xrotation Zrotation
 JOINT Chest
 {
  OFFSET 0.000000 11.395451 -0.039534
  CHANNELS 3 Yrotation Xrotation Zrotation
  JOINT Chest2
  {
   OFFSET 0.000000 9.398669 0.071813
   CHANNELS 3 Yrotation Xrotation Zrotation
   JOINT Chest3
   {
    OFFSET 0.000000 8.489801 0.000000
    CHANNELS 3 Yrotation Xrotation Zrotation
    JOINT Chest4
    {
     OFFSET 0.000000 8.489801 0.000000
     CHANNELS 3 Yrotation Xrotation Zrotation
     JOINT Neck
     {
      OFFSET 0.000000 12.404889 0.000000
      CHANNELS 3 Yrotation Xrotation Zrotation
      JOINT Head
      {
       OFFSET 0.000000 8.903270 0.092239
       CHANNELS 3 Yrotation Xrotation Zrotation
       End Site
       {
        OFFSET 0.000000 17.592497 0.007158
       }
      }
     }
     JOINT RightCollar
     {
      OFFSET -3.196775 6.966722 0.000000
      CHANNELS 3 Yrotation Xrotation Zrotation
      JOINT RightShoulder
      {
       OFFSET -15.955896 0.000000 0.000000
       CHANNELS 3 Yrotation Xrotation Zrotation
       JOINT RightElbow
       {
        OFFSET -24.792472 0.000000 0.000000
        CHANNELS 3 Yrotation Xrotation Zrotation
        JOINT RightWrist
        {
         OFFSET -20.900115 0.000000 0.025002
         CHANNELS 3 Yrotation Xrotation Zrotation
         End Site
         {
          OFFSET -16.056692 0.000000 0.000000
         }
        }
       }
      }
     }
     JOINT LeftCollar
     {
      OFFSET 3.196775 6.966722 0.000000
      CHANNELS 3 Yrotation Xrotation Zrotation
      JOINT LeftShoulder
      {
       OFFSET 15.955896 0.000000 0.000000
       CHANNELS 3 Yrotation Xrotation Zrotation
       JOINT LeftElbow
       {
        OFFSET 24.792472 0.000000 0.000000
        CHANNELS 3 Yrotation Xrotation Zrotation
        JOINT LeftWrist
        {
         OFFSET 20.900115 0.000000 0.025002
         CHANNELS 3 Yrotation Xrotation Zrotation
         End Site
         {
          OFFSET 16.056692 0.000000 0.000000
         }
        }
       }
      }
     }
    }
   }
  }
 }
 JOINT RightHip
 {
  OFFSET -9.568995 0.193718 0.019767
  CHANNELS 3 Yrotation Xrotation Zrotation
  JOINT RightKnee
  {
   OFFSET 0.000000 -56.649296 0.015402
   CHANNELS 3 Yrotation Xrotation Zrotation
   JOINT RightAnkle
   {
    OFFSET 0.000000 -41.365147 0.021264
    CHANNELS 3 Yrotation Xrotation Zrotation
    JOINT RightToe
    {
     OFFSET 0.000000 -7.465940 17.672538
     CHANNELS 3 Yrotation Xrotation Zrotation
     End Site
     {
      OFFSET 0.000000 -1.736315 7.837145
     }
    }
   }
  }
 }
 JOINT LeftHip
 {
  OFFSET 9.568995 0.193718 0.019767
  CHANNELS 3 Yrotation Xrotation Zrotation
  JOINT LeftKnee
  {
   OFFSET 0.000000 -56.649296 0.015402
   CHANNELS 3 Yrotation Xrotation Zrotation
   JOINT LeftAnkle
   {
    OFFSET 0.000000 -41.365147 0.021264
    CHANNELS 3 Yrotation Xrotation Zrotation
    JOINT LeftToe
    {
     OFFSET 0.000000 -7.465940 17.672538
     CHANNELS 3 Yrotation Xrotation Zrotation
     End Site
     {
      OFFSET 0.000000 -1.736315 7.837145
     }
    }
   }
  }
 }
}
MOTION
Frames: 9
Frame Time: 0.016667
114.030027 104.878108 389.799955 177.139056 6.334951 4.770220 -0.790510 5.435167 1.739370 -0.371322 2.412658 0.781426 -0.371322 2.412658 0.781426 -0.281537 1.809023 0.587449 14.101964 10.471753 -5.859566 29.590926 -13.743776 -17.235628 2.504344 -1.541768 4.815390 12.205414 -15.023098 31.765883 51.757933 -51.558792 35.938393 -19.671260 -17.592820 2.373603 4.677005 5.435535 -2.983216 -1.929311 -18.950759 -46.619449 -4.134331 -57.179860 -79.750803 14.136135 -22.360930 6.440195 -33.912632 -25.441691 2.893119 -17.131546 13.425840 -3.985633 -20.241900 -0.794533 -6.758301 0.000000 0.000000 0.000000 29.584228 -18.883841 9.244450 21.211943 29.944220 3.779169 16.674709 -14.298700 2.113996 0.000000 0.000000 0.000000
113.163840 104.848387 390.278385 179.003579 6.189269 4.711447 -0.669935 5.472004 1.742333 -0.317966 2.429514 0.781379 -0.317967 2.429538 0.781385 -0.241549 1.821767 0.587220 13.928389 10.546462 -5.833620 29.231476 -13.666266 -17.098623 2.643620 -1.686824 4.703133 12.070250 -14.600507 31.982812 51.920976 -51.599445 35.544889 -19.584018 -17.615898 2.489664 4.686991 5.435258 -3.152738 -1.705407 -19.158134 -46.849352 -4.343309 -57.038165 -79.611878 14.207937 -22.320935 6.710036 -34.638713 -25.370913 2.407275 -17.339082 12.602360 -3.913449 -21.002676 0.161184 -6.589079 0.000000 -0.000000 -0.000000 30.054274 -18.662585 8.563889 24.122637 28.994561 3.994828 16.848246 -14.198402 2.259297 0.000000 0.000000 0.000000
112.207811 104.803915 390.757460 -179.282375 6.013059 4.672967 -0.509645 5.506786 1.741086 -0.246931 2.445548 0.778955 -0.246937 2.445553 0.778958 -0.188298 1.833856 0.585120 13.744745 10.662316 -5.826039 28.847940 -13.511242 -16.979066 2.756207 -1.795265 4.576240 12.075668 -14.254738 32.236839 52.168720 -51.571877 35.020290 -19.514309 -17.608946 2.615604 4.703198 5.407818 -3.338410 -1.354264 -19.239925 -47.096690 -4.562334 -56.885999 -79.497664 14.232394 -22.273293 6.923855 -35.665569 -25.290049 2.012488 -17.310488 11.752324 -3.893956 -21.563907 1.144860 -6.368661 0.000000 0.000000 0.000000 30.583873 -18.202566 7.679780 26.926320 27.848893 4.192108 16.696014 -14.106558 2.439419 0.000000 -0.000000 0.000000
111.143845 104.719412 391.229720 -177.679646 5.810848 4.644267 -0.321767 5.527875 1.749320 -0.163696 2.455610 0.780381 -0.163696 2.455610 0.780381 -0.125890 1.841503 0.585854 13.558987 10.789214 -5.847512 28.468840 -13.327851 -16.910217 2.834936 -1.863154 4.424102 12.172976 -13.980294 32.468184 52.366760 -51.485489 34.529118 -19.455992 -17.597565 2.770178 4.745636 5.388581 -3.529141 -1.037208 -19.194164 -47.280962 -4.728572 -56.739447 -79.479997 14.118017 -22.247263 7.151690 -36.567033 -25.259648 1.507817 -17.223711 10.992054 -3.866360 -22.038147 2.072601 -6.118405 -0.000000 -0.000000 -0.000000 31.048717 -17.675655 6.621877 27.934159 26.951580 4.134783 17.664968 -14.295286 2.282300 0.000000 -0.000000 0.000000
109.927969 104.569270 391.681034 -176.191035 5.580043 4.600926 -0.108274 5.525100 1.796292 -0.069469 2.455172 0.798688 -0.069467 2.455171 0.798689 -0.055302 1.841290 0.599204 13.365637 10.927207 -5.912536 28.089889 -13.112842 -16.917279 2.873339 -1.849569 4.204375 12.386764 -13.790682 32.614244 52.517544 -51.342132 34.088527 -19.410304 -17.596571 2.974442 4.861972 5.418033 -3.718296 -0.856094 -19.004502 -47.365567 -4.802252 -56.588519 -79.625326 13.767727 -22.270938 7.408487 -37.233958 -25.288273 0.813757 -17.094218 10.363764 -3.767131 -22.481692 2.990135 -5.837813 -0.000000 -0.000000 -0.000000 31.518154 -17.095772 5.234559 25.650641 26.588905 3.885048 21.248261 -15.202830 1.346783 -0.000000 0.000000 -0.000000
108.604157 104.379096 392.125534 -174.813777 5.322766 4.566423 0.132362 5.506987 1.851624 0.036754 2.448048 0.820393 0.036749 2.448031 0.820391 0.024266 1.836063 0.615051 13.169694 11.078753 -6.006852 27.714240 -12.864658 -16.974621 2.879409 -1.791111 3.965445 12.689672 -13.669739 32.728840 52.607634 -51.142135 33.691921 -19.372687 -17.590718 3.207107 5.005862 5.455141 -3.910263 -0.708778 -18.693598 -47.370900 -4.817880 -56.438623 -79.868474 13.283012 -22.321242 7.669797 -37.771045 -25.363538 0.006494 -16.907744 9.822475 -3.657259 -22.838025 3.849753 -5.517136 0.000000 0.000000 0.000000 31.914881 -16.433277 3.678165 21.682589 26.523955 3.638210 25.994530 -16.302558 -0.059358 0.000000 0.000000 0.000000
107.286234 104.200428 392.598153 -173.500716 5.049060 4.602394 0.393663 5.492957 1.839771 0.152954 2.442858 0.812044 0.152954 2.442858 0.812044 0.111451 1.832351 0.608329 12.994054 11.216652 -6.100161 27.380817 -12.635785 -17.042557 2.866942 -1.805543 3.827049 12.955252 -13.567633 32.931475 52.488631 -50.905050 33.463999 -19.330105 -17.559828 3.423657 5.055714 5.413237 -4.113481 -0.450374 -18.322589 -47.304699 -4.823723 -56.330027 -80.084607 12.865559 -22.345137 7.950019 -38.072883 -25.505570 -0.879568 -16.794257 9.358035 -3.667208 -23.050994 4.426128 -5.162907 0.000000 0.000000 0.000000 31.917373 -15.830095 2.427543 19.001121 26.380489 3.368673 28.834529 -16.593687 -1.057309 0.000000 -0.000000 0.000000
106.032998 104.059849 393.135585 -172.261217 4.767021 4.737662 0.677758 5.505794 1.715816 0.280484 2.449524 0.753636 0.280482 2.449542 0.753645 0.207307 1.837522 0.564030 12.853643 11.310380 -6.183851 27.122615 -12.480010 -17.119290 2.826307 -2.059826 3.883973 13.174901 -13.403056 33.249743 52.051622 -50.651197 33.474784 -19.260991 -17.496053 3.613214 4.905232 5.207936 -4.360466 0.031466 -17.873788 -47.125239 -4.834657 -56.296805 -80.238961 12.545018 -22.302581 8.271303 -38.098415 -25.737480 -1.797455 -16.810502 8.949175 -3.879043 -23.096502 4.698474 -4.768991 0.000000 0.000000 0.000000 31.208675 -15.356600 1.796186 19.506224 25.724481 2.974205 27.523182 -15.306670 -0.953253 -0.000000 0.000000 -0.000000
104.785651 103.930776 393.701136 -171.087127 4.463388 4.943292 0.983460 5.530523 1.526355 0.418338 2.461226 0.665842 0.418325 2.461229 0.665851 0.311003 1.846384 0.497634 12.732951 11.390274 -6.268575 26.905926 -12.343436 -17.209404 2.762320 -2.398761 4.028949 13.356224 -13.266046 33.658678 51.413297 -50.374772 33.650354 -19.191498 -17.407139 3.786647 4.657480 4.928070 -4.627938 0.626838 -17.384162 -46.863387 -4.833125 -56.306492 -80.370830 12.287070 -22.227322 8.613736 -37.882541 -26.026540 -2.799878 -16.889867 8.626106 -4.208557 -23.004968 4.681874 -4.340840 0.000000 0.000000 0.000000 30.127862 -14.987523 1.439522 21.247957 24.943686 2.433260 24.353882 -13.198577 -0.368859 0.000000 0.000000 0.000000
